<svg xmlns="http://www.w3.org/2000/svg" viewBox="0 0 898.93 58.6196"><path d="M448.38,27.9577a140.2521,140.2521,0,0,0,10.58,11.56c3.51-4.77,3.62-10.28,4.6-15.8,2.98-.59,5.89.27,9.04.39.95,4.36-.12,8.38-1.34,12.26-1.19,3.77-2.98,7.36-4.63,11.34.95,1.42,2.67,1.34,4.42,1.33,1.84-.01,2.65-1.66,4.19-2.45a29.1421,29.1421,0,0,1,6.28,5.56c-4.73,7.56-12.91,8.42-22.49,2.61-3.78,1.13-7.38,2.46-11.09,3.24a28.1053,28.1053,0,0,1-13.75-.5c-7.05-2.05-11.78-6.48-12.89-13.88s1.29-13.54,7.72-17.79c.92-.61,1.86-1.2,3.08-1.98-.53-1.15-1.05-2.25-1.55-3.35a15.1746,15.1746,0,0,1-1.23-8.87,12.6724,12.6724,0,0,1,8.75-10.45,20.0252,20.0252,0,0,1,12.71-.28c10.35,2.99,11.9,14.61,6.18,21.11a27.1961,27.1961,0,0,1-4.83,3.86A35.0138,35.0138,0,0,1,448.38,27.9577Zm-10.31,3.21c-.9.49-1.61.82-2.26,1.24a9.9184,9.9184,0,0,0-1.5,1.17,8.3593,8.3593,0,0,0,2.62,14.05,14.9448,14.9448,0,0,0,3.67.97,16.6349,16.6349,0,0,0,10.88-1.93A120.4335,120.4335,0,0,0,438.07,31.1677Zm4.09-10.46c3.65-1.05,4.99-1.66,6.14-2.78,2.28-2.21,2.36-6.09.17-8.09a6.4419,6.4419,0,0,0-7.12-.53,5.48,5.48,0,0,0-2.63,6.09A8.8146,8.8146,0,0,0,442.16,20.7077Z"/><path d="M888.19,32.0177c3.13,1.71,5.33,3.56,6.5,6.32a15.7282,15.7282,0,0,1,1.25,4.59c.42,4.75.64,9.52,2.99,13.86-3.24,1.04-6.22,1.16-12.51.56-1.51-1.93-1.73-4.33-1.91-6.7-.14-1.91-.05-3.84-.17-5.75a21.5578,21.5578,0,0,0-.6-4.24,6.6375,6.6375,0,0,0-6.17-5.2,85.969,85.969,0,0,0-14.08.01,20.2811,20.2811,0,0,0-.42,2.82c-.04,4.64-.01,9.27-.04,13.91-.01,1.58-.1,3.15-.16,4.88-1.77.89-3.54.56-5.24.56-1.72,0-3.49.31-5.32-.42a10.2231,10.2231,0,0,1-.34-1.84c-.02-17.88-.01-35.77-.01-53.9a17.3853,17.3853,0,0,1,2.89-.53c8.63-.03,17.26-.01,25.89-.01a20.98,20.98,0,0,1,7.94,1.58c5.69,2.31,9.04,6.53,9.73,12.6.67,5.86-1.58,10.63-6.24,14.23C891.06,30.1777,889.83,30.9077,888.19,32.0177Zm-24.57-7.54a2.35,2.35,0,0,0,.84.36q7.665.075,15.32.08a9.4937,9.4937,0,0,0,2.37-.29,6.5317,6.5317,0,0,0,5.25-7.01c-.12-3.57-2.11-5.68-5.97-6.27a21.9825,21.9825,0,0,0-3.34-.24q-5.985-.045-11.97.01a18.729,18.729,0,0,0-2.6.36A38.6437,38.6437,0,0,0,863.62,24.4777Z"/><path d="M203.2,57.3277a5.0579,5.0579,0,0,1-.47-1.43q-.06-26.355-.05-52.71a11.0812,11.0812,0,0,1,.39-2c1.01-.1,1.94-.28,2.86-.28,6.71-.02,13.42,0,20.13.01a32.1919,32.1919,0,0,1,10.33,1.79,24.2174,24.2174,0,0,1,15.96,15.97,32.8882,32.8882,0,0,1,.41,20.27c-2.69,8.95-8.75,14.7-17.65,17.34a30.9943,30.9943,0,0,1-8.01,1.26c-7.34.17-14.69.08-22.04.06A10.8619,10.8619,0,0,1,203.2,57.3277Zm10.51-46.35c0,11.9-.01,23.21.02,34.53a10.7389,10.7389,0,0,0,.4,1.99,20.3636,20.3636,0,0,0,2.41.25c3.51-.02,7.02-.04,10.52-.18a16.1708,16.1708,0,0,0,3.76-.69,15.6588,15.6588,0,0,0,11.64-12.11,23.3133,23.3133,0,0,0-.18-11.38c-1.56-6.04-5.35-10.13-11.43-11.72C225.42,10.2477,219.85,10.6077,213.71,10.9777Z"/><path d="M134.65.8977h10.54c4.32.01,8.63.01,12.95.03a31.4173,31.4173,0,0,1,11.23,2.18,23.9074,23.9074,0,0,1,14.24,14.05,32.7512,32.7512,0,0,1,.84,22.09c-2.73,8.76-8.7,14.37-17.41,16.99a30.6189,30.6189,0,0,1-8.01,1.3c-7.51.17-15.02.07-22.53.05a11.4658,11.4658,0,0,1-1.64-.28,15.8542,15.8542,0,0,1-.46-2.67q-.045-25.41-.01-50.83C134.39,3.0477,134.52,2.2777,134.65.8977Zm11.5,10.07a5.5449,5.5449,0,0,0-.54,1.53q-.045,16.74,0,33.47a7.1065,7.1065,0,0,0,.58,1.69c5.62.04,11.35.73,16.92-.94,6.19-1.85,9.93-6.14,11.26-12.44a23.9761,23.9761,0,0,0-.06-9.98c-1.37-6.47-5.16-10.93-11.64-12.63C157.24,10.2477,151.67,10.5677,146.15,10.9677Z"/><path d="M367.79,32.0377c5.92,3.12,7.95,7.92,8.01,13.74a22.4168,22.4168,0,0,0,2.9,11.19c-1.5.95-2.94.61-4.28.66-1.44.05-2.88.04-4.31.01-1.42-.03-2.83-.13-4.1-.19a8.6432,8.6432,0,0,1-1.71-5.12c-.16-2.23-.23-4.47-.4-6.7a30.0339,30.0339,0,0,0-.54-4.75,6.8764,6.8764,0,0,0-5.53-5.34c-2.26-.53-11.58-.37-14.96.27-.75,3.53-.22,7.2-.34,10.82-.11,3.48.12,6.97-.18,10.55-1.9.75-3.67.41-5.38.45-1.57.04-3.14-.09-4.95-.15a16.1488,16.1488,0,0,1-.37-2.41q-.03-25.635-.01-51.28c0-.77.14-1.54.24-2.56,1.06-.12,1.97-.3,2.88-.31,8.31-.02,16.62,0,24.92-.02a22.7848,22.7848,0,0,1,9.31,1.9c10.93,4.79,11.91,19.42,3.23,26.14C370.96,29.9077,369.63,30.7577,367.79,32.0377Zm-24.72-20.52a35.7222,35.7222,0,0,0,.02,12.93c.28.13.56.37.84.37,5.27.05,10.55.11,15.82.05a8.918,8.918,0,0,0,3.23-.76,6.5157,6.5157,0,0,0,4.05-6.9,6.2352,6.2352,0,0,0-5.04-5.68,18.6754,18.6754,0,0,0-3.81-.41q-6.24-.075-12.47,0A18.0035,18.0035,0,0,0,343.07,11.5177Z"/><path d="M655.27,1.0977c1.19-.09,1.97-.19,2.75-.19,6.71-.01,13.42-.11,20.12.06a36.325,36.325,0,0,1,8.51,1.13c9.54,2.57,15.87,8.58,18.45,18.24a33.7855,33.7855,0,0,1-.19,18.91,24.46,24.46,0,0,1-15.11,16.24,28.1606,28.1606,0,0,1-10.26,2.11q-11.25.03-22.52.01a10.3218,10.3218,0,0,1-1.65-.3,11.9691,11.9691,0,0,1-.38-2.18q-.03-25.875-.01-51.74C654.99,2.7677,655.14,2.1477,655.27,1.0977Zm10.93,46.6c5.67-.02,10.91.54,16.11-.66a15.5382,15.5382,0,0,0,12.21-11.52,22.3607,22.3607,0,0,0-.44-13.66,14.7554,14.7554,0,0,0-10.21-9.96c-5.73-1.68-11.59-1.35-17.26-.89-.31.61-.57.88-.57,1.16q-.105,16.275-.14,32.56C665.89,45.4977,666.05,46.2677,666.2,47.6977Z"/><path d="M723.72,57.5177c-.66-4.05-.85-49.47-.27-56.12a14.4612,14.4612,0,0,1,2.59-.48c6.87-.03,13.74-.14,20.6.06a36.1649,36.1649,0,0,1,8.96,1.34c9.12,2.65,15.13,8.6,17.65,17.84a33.6616,33.6616,0,0,1-.1,18.9,24.1846,24.1846,0,0,1-15.44,16.47,27.0558,27.0558,0,0,1-8.35,1.89C740.91,57.6777,732.44,57.5177,723.72,57.5177Zm10.96-9.8c5.45-.07,10.72.55,15.92-.69a15.6032,15.6032,0,0,0,12.03-11.13,22.22,22.22,0,0,0,.58-10.43c-1.35-8.23-6.19-13.1-14.51-14.25a101.66,101.66,0,0,0-11.46-.46,17.4531,17.4531,0,0,0-2.65.32,7.5288,7.5288,0,0,0-.47,1.64q-.03,16.53,0,33.05A8.8042,8.8042,0,0,0,734.68,47.7177Z"/><path d="M313.44,1.7477a42.0791,42.0791,0,0,1-.08,8.53c-1.35,1.13-2.84.79-4.24.8-7.35.04-14.69,0-22.04.03-1.55.01-3.11.15-4.77.23a15.1069,15.1069,0,0,0-.39,2.12c-.03,3.01-.02,6.02-.02,9.3a26.6573,26.6573,0,0,0,3.42.5c6.71.04,13.42.02,20.12.03h4.89c1.33,3.43.87,6.65.34,10.21-4.91.02-9.67.03-14.44.07-4.59.04-9.2-.14-13.94.14-.7,2.45-.34,4.68-.41,6.87-.06,2.06-.01,4.13-.01,5.92,1.51,1.39,3.01,1.04,4.4,1.05,7.67.04,15.33,0,23,.04,1.55.01,3.19-.37,4.92.76a41.2237,41.2237,0,0,1,.09,8.37,6.5225,6.5225,0,0,1-.65.68.92.92,0,0,1-.46.11q-19.875.075-39.76.13a19.03,19.03,0,0,1-2.08-.24,17.1146,17.1146,0,0,1-.45-2.75q-.045-25.395-.01-50.79a16.4646,16.4646,0,0,1,.21-2.07,4.0779,4.0779,0,0,1,.53-.57.9275.9275,0,0,1,.45-.15q19.1549-.075,38.32-.14a18.984,18.984,0,0,1,2.37.22C312.87,1.1477,312.98,1.3277,313.44,1.7477Z"/><path d="M73.93,57.0977V1.4377a10.9327,10.9327,0,0,1,2.28-.5q18.945-.045,37.89-.01a12.4513,12.4513,0,0,1,1.79.25c1.08,1.56.59,3.2.67,4.76.07,1.42.02,2.85.02,3.9-1.3,1.51-2.64,1.24-3.88,1.25-7.51.02-15.03,0-22.54.03-1.56.01-3.12.14-4.95.24-.69,3.86-.23,7.49-.31,11.39a21.9655,21.9655,0,0,0,3.32.52c6.87.05,13.75.01,20.62.04,1.57.01,3.13.13,4.87.21a38.2947,38.2947,0,0,1,.18,9.57,22.7863,22.7863,0,0,1-3.15.46c-6.87.04-13.75.01-20.62.03-1.56.01-3.13.13-4.9.2a61.8405,61.8405,0,0,0-.11,13.33,35.2012,35.2012,0,0,0,3.75.44c7.67.04,15.35.01,23.02.03,1.58,0,3.15.1,4.86.16a20.3259,20.3259,0,0,1,.21,9.61,13.8465,13.8465,0,0,1-1.99.29q-19.665.015-39.33-.03A10.4521,10.4521,0,0,1,73.93,57.0977Z"/><path d="M831.47,23.5177v9.52a22.0088,22.0088,0,0,1-3.16.49c-6.87.05-13.74.01-20.61.04-1.57,0-3.13.12-4.91.19a53.5252,53.5252,0,0,0-.21,12.73c1.2,1.36,2.55,1.04,3.77,1.04,7.67.03,15.34.01,23.01.03,1.57,0,3.14.11,4.58.16,1.22,1.65.74,3.29.82,4.84.07,1.43.02,2.86.02,4.42a7.6932,7.6932,0,0,1-1.9.62q-19.65.045-39.31.02a9.0664,9.0664,0,0,1-1.72-.3c-.64-3.85-.8-49.9-.21-55.88a5.8477,5.8477,0,0,1,1.65-.48q19.41-.045,38.83-.01a7.8743,7.8743,0,0,1,1.53.33c.95,2.95.26,5.95.41,8.62-1.23,1.47-2.58,1.18-3.82,1.19-7.51.03-15.02,0-22.53.03-1.56.01-3.13.14-4.81.23-.78,2.05-.49,3.97-.53,5.84-.04,1.75-.01,3.5-.01,5.52a22.9131,22.9131,0,0,0,3.37.56c6.87.05,13.74.02,20.61.04C827.9,23.2877,829.46,23.4177,831.47,23.5177Z"/><path d="M637.63,57.5777c-14.45.13-28.46.04-42.7.07a11.84,11.84,0,0,1-.53-2.4q-.03-26.115.01-52.24a10.6268,10.6268,0,0,1,.25-1.59,6.3881,6.3881,0,0,1,1.71-.47q19.17-.045,38.34-.01a13.8668,13.8668,0,0,1,2.02.35,41.2041,41.2041,0,0,1-.08,9.41,36.8779,36.8779,0,0,1-3.72.37c-7.51.04-15.02.01-22.52.03-1.56,0-3.17-.22-4.87.57a20.32,20.32,0,0,0-.28,2.3c-.01,2.85.03,5.7.06,8.85a38.7779,38.7779,0,0,0,3.88.44c6.71.04,13.42.01,20.13.03,1.56.01,3.12.14,4.95.23a27.525,27.525,0,0,1-.03,9.75c-4.94.56-9.71.2-14.47.27-4.61.06-9.22.01-14.03.01-.96,4.68-.39,9.04-.41,13.17,1.87,1.15,3.51.8,5.07.81,7.35.04,14.7.01,22.05.03,1.57,0,3.14.11,4.83.17C638.16,50.9377,637.8,53.9077,637.63,57.5777Z"/><path d="M579.36,1.0577c-.94,4.23-19.44,51.9-21.82,56.4H542.1q-10.68-27.48-21.31-54.88a4.996,4.996,0,0,1-.02-1.52h11.37c.63,1.57,1.32,3.15,1.92,4.77q6.825,18.405,13.62,36.82c.6,1.63,1.28,3.24,2.02,5.12,1.32-.93,1.54-2.12,1.95-3.22q7.14-19.305,14.32-38.6c.61-1.63,1.28-3.24,1.93-4.89Z"/><path d="M37.41,57.4577H22.11a10.8767,10.8767,0,0,1-1.14-1.84Q10.77,29.5327.63,3.4377c-.22-.58-.37-1.18-.63-2.01,1.23-.75,2.5-.48,3.69-.52,1.28-.05,2.55-.01,3.83-.01H11.5c.63,1.44,1.25,2.7,1.73,4.01q7.185,19.29,14.33,38.59c.49,1.31,1.06,2.58,1.7,4.15,1.48-.88,1.63-2.24,2.03-3.33,4.63-12.41,9.19-24.84,13.79-37.26.71-1.93,1.49-3.84,2.35-6.04,1.93-.04,3.82-.1,5.71-.12s3.79,0,6.01,0c-.34,1.3-.49,2.23-.82,3.09C51.35,21.7877,44.53,39.6477,37.41,57.4577Z"/></svg>